<svg width="71" height="60" viewBox="0 0 71 60" fill="none" xmlns="http://www.w3.org/2000/svg">
<path d="M70.4 58.0392L61.1 37.5392V27.0392H64.7C65.4 27.0392 65.9 26.4392 65.9 25.8392V17.8392C65.9 17.1392 65.3 16.6392 64.7 16.6392H53.1V1.23923C53.1 0.839231 52.9 0.439231 52.6 0.239231C52.3 0.0392305 51.9 -0.0607695 51.5 0.0392305L14.2 11.7392C13.7 11.9392 13.3 12.3392 13.3 12.9392V15.9392L4.7 21.0392C4.3 21.2392 4.10001 21.6392 4.10001 22.1392V32.9392H1.2C0.500005 32.9392 0 33.5392 0 34.1392V58.5392C0 59.2392 0.600005 59.7392 1.2 59.7392H36.3H69.2C69.6 59.7392 70 59.5392 70.3 59.1392C70.5 58.9392 70.5 58.4392 70.4 58.0392ZM50.6 2.93923V16.5392H39C38.3 16.5392 37.8 17.1392 37.8 17.7392V25.5392C37.8 26.2392 38.4 26.7392 39 26.7392H42.8V37.8392L41.2 42.1392L29.8 33.0392C29.6 32.8392 29.3 32.7392 29 32.7392H24.6V22.5392C24.6 22.1392 24.4 21.7392 24.1 21.5392L15.9 15.9392V13.8392L50.6 2.93923ZM38.1 50.3392H2.4V45.5392H39.9L38.1 50.3392ZM6.60001 22.8392L14.5 18.1392L22 23.2392V32.8392H16.4V27.2392H11.9V32.8392H6.60001V22.8392ZM28.4 35.3392L38 42.9392H2.4V35.3392H28.4ZM35.5 57.3392H2.5V52.8392H37.2L35.5 57.3392ZM55.5 57.3392H48.2V49.1392H55.5V57.3392ZM58 57.3392V47.9392C58 47.2392 57.4 46.7392 56.8 46.7392H47C46.3 46.7392 45.8 47.3392 45.8 47.9392V57.3392H38.2L42.9 44.8392C42.9 44.8392 42.9 44.8392 42.9 44.7392L45.2 38.6392C45.3 38.5392 45.3 38.3392 45.3 38.2392V25.6392C45.3 24.9392 44.7 24.4392 44.1 24.4392H40.3V19.1392H63.6V24.6392H59.8C59.1 24.6392 58.6 25.2392 58.6 25.8392V37.8392C58.6 38.0392 58.6 38.2392 58.7 38.3392L67.3 57.3392H58Z" fill="url(#paint0_linear)"/>
<defs>
<linearGradient id="paint0_linear" x1="-0.0887" y1="29.904" x2="70.4744" y2="29.904" gradientUnits="userSpaceOnUse">
<stop stop-color="#CBC9C9"/>
<stop offset="1" stop-color="#949494"/>
</linearGradient>
</defs>
</svg>
