<svg width="87" height="61" viewBox="0 0 87 61" fill="none" xmlns="http://www.w3.org/2000/svg">
<path d="M86.1 39.4C86.1 30 78.4 22.3 69 22.3H34.4V4H37.7V0H17.5V4H20.9V22.3H17C9.2 22.3 2.6 27.6 0.599998 34.8V34.9C0.199998 36.3 0 37.9 0 39.4C0 42.7 0.9 45.7 2.5 48.3C2.5 48.4 2.6 48.4 2.6 48.5C4.5 51.4 7.2 53.8 10.4 55.2C12 55.9 13.7 56.3 15.4 56.5V60.3H20.8V56.6H65.1V60.3H70.5V56.5C79.3 55.5 86.1 48.2 86.1 39.4ZM67.9 53.5C67.8 53.6 67.7 53.8 67.7 53.9H59.5L73.3 36.4H81.4L67.9 53.5ZM26.1 36.5H34.7L21.2 53.6C21.1 53.7 21 53.9 21 54H17C15.5 54 14.1 53.8 12.8 53.4L26.1 36.5ZM37.9 36.5H46.8L33.3 53.6C33.2 53.7 33.1 53.9 33.1 54H24.1L37.9 36.5ZM50 36.5H58.1L44.6 53.6C44.5 53.7 44.4 53.9 44.4 54H36.2L50 36.5ZM61.3 36.5H70.2L56.7 53.6C56.6 53.7 56.5 53.9 56.5 54H47.5L61.3 36.5ZM23.5 3.9H32V22.2H23.5V3.9ZM17 24.7H69C75.1 24.7 80.4 28.5 82.6 33.9H3.5C5.6 28.6 10.9 24.7 17 24.7ZM2.4 39.4C2.4 38.4 2.5 37.4 2.7 36.5H10.8L3.7 45.5C2.9 43.6 2.4 41.5 2.4 39.4ZM5.1 47.8L14 36.5H22.9L10.4 52.4C8.3 51.3 6.5 49.7 5.1 47.8ZM70.9 53.8L83.5 37.8C83.6 38.3 83.6 38.8 83.6 39.4C83.6 46.8 78.1 52.9 70.9 53.8Z" fill="url(#paint0_linear)"/>
<defs>
<linearGradient id="paint0_linear" x1="-0.0851" y1="30.0549" x2="86.1186" y2="30.0549" gradientUnits="userSpaceOnUse">
<stop stop-color="#CBC9C9"/>
<stop offset="1" stop-color="#949494"/>
</linearGradient>
</defs>
</svg>
