<svg width="58" height="58" viewBox="0 0 58 58" fill="none" xmlns="http://www.w3.org/2000/svg">
<path d="M28.9 0C13 0 0 13 0 28.9C0 44.8 13 57.8 28.9 57.8C44.8 57.8 57.8 44.8 57.8 28.9C57.8 12.9 44.9 0 28.9 0ZM28.9 55.2C14.4 55.2 2.5 43.4 2.5 28.8C2.5 14.3 14.3 2.4 28.9 2.4C43.4 2.4 55.3 14.2 55.3 28.8C55.3 43.4 43.5 55.2 28.9 55.2Z" fill="url(#paint0_linear)"/>
<path d="M39.6001 11.8C37.1001 10.3 34.2001 9.70005 31.6001 10C28.8001 10.3 26.5001 11.7001 25.2001 13.9001C23.9001 16.1001 23.9001 18.7 25.0001 21.3C25.8001 23.1 27.0001 24.7 28.7001 26L22.0001 36.5L19.3001 34.7001L17.7001 37.2001L20.4001 39L17.6001 43.4001L15.2001 41.8L13.6001 44.3L16.0001 45.9001L20.7001 48.9001L33.7001 28.6C34.9001 29 36.2001 29.2001 37.4001 29.2001C37.8001 29.2001 38.3001 29.2 38.7001 29.1C41.5001 28.8 43.8001 27.4 45.1001 25.2C46.4001 23 46.4001 20.4 45.3001 17.8C44.1001 15.4 42.1001 13.2 39.6001 11.8ZM41.5001 23.2C40.9001 24.3 39.7001 24.9 38.1001 25.1C36.3001 25.3 34.4001 24.8 32.5001 23.8C30.7001 22.8 29.3001 21.3 28.6001 19.6C28.0001 18.2 28.0001 16.8 28.6001 15.7C29.2001 14.6 30.4001 14 32.0001 13.8C32.3001 13.8 32.6001 13.8 32.8001 13.8C34.3001 13.8 36.0001 14.3 37.5001 15.1C39.3001 16.1 40.7001 17.6 41.4001 19.3C42.1001 20.8 42.1001 22.2 41.5001 23.2Z" fill="url(#paint1_linear)"/>
<defs>
<linearGradient id="paint0_linear" x1="0.0823" y1="28.8549" x2="57.8182" y2="28.8549" gradientUnits="userSpaceOnUse">
<stop stop-color="#CBC9C9"/>
<stop offset="1" stop-color="#949494"/>
</linearGradient>
<linearGradient id="paint1_linear" x1="13.4997" y1="29.4148" x2="45.9653" y2="29.4148" gradientUnits="userSpaceOnUse">
<stop stop-color="#CBC9C9"/>
<stop offset="1" stop-color="#949494"/>
</linearGradient>
</defs>
</svg>
