<svg width="68" height="69" viewBox="0 0 68 69" fill="none" xmlns="http://www.w3.org/2000/svg">
<path d="M34.4323 15.6C38.7323 15.6 42.2323 12.1 42.2323 7.8C42.2323 3.5 38.7323 0 34.4323 0C30.1323 0 26.6323 3.5 26.6323 7.8C26.6323 12.1 30.1323 15.6 34.4323 15.6ZM34.4323 2.59999C37.3323 2.59999 39.7323 4.99999 39.7323 7.89999C39.7323 10.8 37.3323 13.2 34.4323 13.2C31.5323 13.2 29.1323 10.8 29.1323 7.89999C29.1323 4.99999 31.5323 2.59999 34.4323 2.59999Z" fill="url(#paint0_linear)"/>
<path d="M67.4324 66.3001L53.8324 41.1001C53.6324 40.7001 53.2324 40.5001 52.8324 40.4001C52.4324 40.4001 52.0324 40.6001 51.7324 40.9001L46.8324 47.9001L38.5324 43.4001C38.7324 42.9001 38.8324 42.3001 38.7324 41.7001L35.7324 20.1001C35.7324 19.8001 35.5324 19.5001 35.2324 19.3001L26.8324 13.3001C26.6324 13.1001 26.3324 13.1001 26.1324 13.1001H13.7324C13.4324 13.1001 13.1324 13.2001 12.8324 13.5001L3.33241 22.9001C2.53241 23.7001 2.13241 24.8001 2.13241 25.9001C2.13241 27.0001 2.63241 28.0001 3.53241 28.8001C4.63241 29.8001 6.13241 30.0001 7.43242 29.5001L9.43242 30.6001L9.23241 30.9001C9.13241 31.0001 9.13241 31.1001 9.03241 31.3001L0.132415 63.1001C-0.167585 64.3001 0.0324146 65.6001 0.832415 66.7001C1.63241 67.8001 2.83241 68.3001 4.13241 68.3001C5.83241 68.3001 7.33242 67.2001 7.93242 65.6001L15.1324 46.3001L20.5324 50.7001V64.0001C20.5324 66.3001 22.4324 68.2001 24.7324 68.2001C27.0324 68.2001 28.9324 66.3001 28.9324 64.0001V48.6001C28.9324 48.4001 28.9324 48.2001 28.8324 48.1001L24.3324 38.8001L31.2324 42.6001L31.3324 43.0001C31.6324 44.9001 33.5324 46.3001 35.4324 45.9001C35.8324 45.8001 36.2324 45.7001 36.6324 45.5001L45.1324 50.2001L44.6324 50.9001L39.2324 51.6001C38.8324 51.7001 38.4324 51.9001 38.2324 52.3001L31.1324 66.5001C30.9324 66.9001 30.9324 67.3001 31.2324 67.7001C31.4324 68.1001 31.8324 68.3001 32.3324 68.3001H66.1324C66.5324 68.3001 66.9324 68.1001 67.2324 67.7001C67.6324 67.2001 67.6324 66.7001 67.4324 66.3001ZM9.73241 27.8001L15.6324 21.9001L11.0324 28.4001L9.73241 27.8001ZM21.5324 38.3001L26.6324 48.9001V64.0001C26.6324 65.0001 25.8324 65.7001 24.9324 65.7001C24.0324 65.7001 23.2324 64.9001 23.2324 64.0001V50.1001C23.2324 49.7001 23.0324 49.4001 22.7324 49.1001L15.4324 43.2001C15.2324 43.0001 14.9324 42.9001 14.6324 42.9001C14.5324 42.9001 14.4324 42.9001 14.3324 42.9001C13.9324 43.0001 13.6324 43.3001 13.5324 43.7001L5.73241 64.7001C5.53241 65.3001 4.93241 65.7001 4.23241 65.7001C3.73241 65.7001 3.23241 65.5001 2.93242 65.1001C2.63242 64.7001 2.53241 64.2001 2.63241 63.7001L11.4324 32.1001L11.6324 31.8001L21.5324 37.2001C21.3324 37.4001 21.3324 37.9001 21.5324 38.3001ZM25.2324 36.3001L29.3324 30.8001L30.8324 39.4001L25.2324 36.3001ZM35.2324 43.4001C34.6324 43.5001 34.0324 43.1001 33.9324 42.5001L33.7324 41.5001C33.7324 41.4001 33.7324 41.3001 33.7324 41.3001L31.2324 27.4001C31.1324 26.9001 30.7324 26.5001 30.3324 26.4001C29.8324 26.3001 29.3324 26.5001 29.0324 26.9001L23.0324 35.0001L13.1324 29.6001L19.0324 21.3001C19.3324 20.9001 19.3324 20.4001 19.1324 20.0001C18.9324 19.6001 18.5324 19.3001 18.0324 19.3001H15.0324C14.7324 19.3001 14.4324 19.4001 14.1324 19.7001L7.13241 26.7001C6.63241 27.2001 5.73241 27.3001 5.13241 26.8001C4.83241 26.5001 4.63241 26.2001 4.63241 25.7001C4.63241 25.3001 4.73241 24.9001 5.03241 24.6001L14.1324 15.5001H25.5324L33.1324 21.0001L36.0324 42.0001C36.2324 42.7001 35.8324 43.3001 35.2324 43.4001ZM34.6324 65.7001L40.5324 53.9001L45.8324 53.2001C46.2324 53.2001 46.5324 53.0001 46.7324 52.7001L52.7324 44.1001L64.2324 65.7001H34.6324Z" fill="url(#paint1_linear)"/>
<defs>
<linearGradient id="paint0_linear" x1="26.6287" y1="7.836" x2="42.197" y2="7.836" gradientUnits="userSpaceOnUse">
<stop stop-color="#CBC9C9"/>
<stop offset="1" stop-color="#949494"/>
</linearGradient>
<linearGradient id="paint1_linear" x1="0.130715" y1="40.6374" x2="67.5888" y2="40.6374" gradientUnits="userSpaceOnUse">
<stop stop-color="#CBC9C9"/>
<stop offset="1" stop-color="#949494"/>
</linearGradient>
</defs>
</svg>
