<svg width="64" height="62" viewBox="0 0 64 62" fill="none" xmlns="http://www.w3.org/2000/svg">
<path d="M63.2 18.65L32.6 0.15C32.2 -0.05 31.7 -0.05 31.3 0.15L0.6 18.65C0.2 18.85 0 19.25 0 19.65V27.85C0 28.25 0.2 28.75 0.6 28.95C1 29.15 1.5 29.15 1.9 28.95L4.1 27.65V60.05C4.1 60.75 4.7 61.25 5.3 61.25H58.7C59.4 61.25 59.9 60.65 59.9 60.05V27.85L61.9 29.05C62.1 29.15 62.3 29.25 62.5 29.25C62.7 29.25 62.9 29.15 63.1 29.05C63.5 28.85 63.7 28.45 63.7 27.95V19.75C63.8 19.25 63.6 18.85 63.2 18.65ZM50.9 58.75H40.3V36.15H50.9V58.75ZM57.5 58.75H53.4V34.95C53.4 34.25 52.8 33.75 52.2 33.75H39C38.3 33.75 37.8 34.35 37.8 34.95V58.85H6.6V26.25L31.9 11.45L57.5 26.45V58.75ZM61.3 25.75L32.5 8.85C32.1 8.65 31.6 8.65 31.2 8.85L2.5 25.75V20.45L31.9 2.65L61.3 20.35V25.75Z" fill="url(#paint0_linear)"/>
<path d="M11.2 27.45C10.5 27.45 10 28.05 10 28.65V45.95C10 46.65 10.6 47.15 11.2 47.15H34C34.7 47.15 35.2 46.55 35.2 45.95V28.65C35.2 27.95 34.6 27.45 34 27.45H11.2ZM21.4 29.95V36.0499H12.5V29.95H21.4ZM12.5 38.5499H21.4V44.65H12.5V38.5499ZM23.9 44.65V38.5499H32.8V44.65H23.9ZM32.8 36.0499H23.9V29.95H32.8V36.0499Z" fill="url(#paint1_linear)"/>
<path d="M47.9999 49.6501C48.7999 49.6501 49.3999 49.0501 49.3999 48.2501C49.3999 47.4501 48.7999 46.8501 47.9999 46.8501C47.1999 46.8501 46.5999 47.4501 46.5999 48.2501C46.4999 49.0501 47.1999 49.6501 47.9999 49.6501Z" fill="url(#paint2_linear)"/>
<defs>
<linearGradient id="paint0_linear" x1="0" y1="30.6166" x2="63.8335" y2="30.6166" gradientUnits="userSpaceOnUse">
<stop stop-color="#CBC9C9"/>
<stop offset="1" stop-color="#949494"/>
</linearGradient>
<linearGradient id="paint1_linear" x1="10" y1="37.3108" x2="35.2778" y2="37.3108" gradientUnits="userSpaceOnUse">
<stop stop-color="#CBC9C9"/>
<stop offset="1" stop-color="#949494"/>
</linearGradient>
<linearGradient id="paint2_linear" x1="46.5133" y1="48.2554" x2="49.3941" y2="48.2554" gradientUnits="userSpaceOnUse">
<stop stop-color="#CBC9C9"/>
<stop offset="1" stop-color="#949494"/>
</linearGradient>
</defs>
</svg>
