<svg width="114" height="58" viewBox="0 0 114 58" fill="none" xmlns="http://www.w3.org/2000/svg">
<path d="M60.8 29.4C68.9 29.4 75.5 22.8 75.5 14.7C75.5 6.6 68.9 0 60.8 0H14.7C6.6 0 0 6.6 0 14.7C0 22.8 6.6 29.4 14.7 29.4H60.8ZM2.39999 14.7C2.39999 8 7.89999 2.5 14.6 2.5H60.7C67.4 2.5 72.9 8 72.9 14.7C72.9 21.4 67.4 26.9 60.7 26.9H14.6C7.89999 26.9 2.39999 21.4 2.39999 14.7Z" fill="url(#paint0_linear)"/>
<path d="M112 42.8998H110.5V27.0998C110.5 26.3998 109.9 25.8998 109.3 25.8998H107.4C107.3 21.5998 106 18.0998 103.5 15.3998C98.9999 10.5998 92.2 10.2998 91.9 10.2998H78.4C77.7 10.2998 77.2 10.8998 77.2 11.4998V42.7998H73.4999V32.1998C73.4999 31.4998 72.9 30.9998 72.3 30.9998H12.2C11.5 30.9998 11 31.5998 11 32.1998V42.7998H9.39995C8.69995 42.7998 8.19995 43.3998 8.19995 43.9998C8.19995 44.5998 8.79995 45.1998 9.39995 45.1998H18.3C18 46.0998 17.8 47.0998 17.8 48.1998C17.8 53.4998 22.0999 57.7998 27.3999 57.7998C32.6999 57.7998 36.9999 53.4998 36.9999 48.1998C36.9999 47.1998 36.8 46.1998 36.5 45.1998H82.7C82.3999 46.0998 82.2 47.0998 82.2 48.1998C82.2 53.4998 86.5 57.7998 91.8 57.7998C97.1 57.7998 101.4 53.4998 101.4 48.1998C101.4 47.1998 101.2 46.1998 100.9 45.1998H112C112.7 45.1998 113.2 44.5998 113.2 43.9998C113.2 43.3998 112.7 42.8998 112 42.8998ZM91.8 12.7998C91.8 12.7998 95.2999 12.8998 98.5999 14.7998C102.6 16.9998 104.7 20.7998 104.8 25.8998H79.4999V12.7998H91.8ZM27.0999 55.4998C23.1999 55.4998 20 52.2998 20 48.3998C20 44.4998 23.1999 41.2998 27.0999 41.2998C30.9999 41.2998 34.2 44.4998 34.2 48.3998C34.2 52.2998 30.9999 55.4998 27.0999 55.4998ZM27.0999 38.7998C23.7999 38.7998 21 40.3998 19.2 42.8998H13.0999V33.4998H70.7V42.8998H34.8C33.2 40.3998 30.3999 38.7998 27.0999 38.7998ZM91.8 55.4998C87.9 55.4998 84.7 52.2998 84.7 48.3998C84.7 44.4998 87.9 41.2998 91.8 41.2998C95.7 41.2998 98.9 44.4998 98.9 48.3998C98.9 52.2998 95.7 55.4998 91.8 55.4998ZM91.8 38.7998C88.5 38.7998 85.7 40.3998 83.9 42.8998H79.4999V28.3998H106H107.9V42.8998H99.9999C99.8999 42.8998 99.6999 42.8998 99.5999 42.9998C97.9999 40.4998 95.1 38.7998 91.8 38.7998Z" fill="url(#paint1_linear)"/>
<defs>
<linearGradient id="paint0_linear" x1="-0.1267" y1="14.6892" x2="75.4847" y2="14.6892" gradientUnits="userSpaceOnUse">
<stop stop-color="#CBC9C9"/>
<stop offset="1" stop-color="#949494"/>
</linearGradient>
<linearGradient id="paint1_linear" x1="7.87325" y1="34.1543" x2="113.262" y2="34.1543" gradientUnits="userSpaceOnUse">
<stop stop-color="#CBC9C9"/>
<stop offset="1" stop-color="#949494"/>
</linearGradient>
</defs>
</svg>
