<svg width="82" height="54" viewBox="0 0 82 54" fill="none" xmlns="http://www.w3.org/2000/svg">
<path d="M35.8001 44.1749H45.3001C46.0001 44.1749 46.5 43.5749 46.5 42.9749V33.4749C46.5 32.7749 45.9001 32.2749 45.3001 32.2749H35.8001C35.1001 32.2749 34.6001 32.8749 34.6001 33.4749V42.9749C34.5001 43.6749 35.1001 44.1749 35.8001 44.1749ZM37 34.6749H44V41.6749H37V34.6749Z" fill="url(#paint0_linear)"/>
<path d="M80.8 17.075L63.2 0.375C62.7 -0.125 62 -0.125 61.5 0.375L49.7 11.175L41.8 2.875C41.6 2.675 41.2 2.475 40.9 2.475C40.6 2.475 40.2 2.575 40 2.875L31.6 11.175L19.7 0.375C19.2 -0.025 18.5 -0.025 18 0.375L0.400002 17.075C2.26498e-06 17.475 -0.100001 17.975 0.0999992 18.475C0.299999 18.975 0.699996 19.275 1.3 19.275H4.8V42.075C4.8 42.775 5.39999 43.275 5.99999 43.275H25V52.575C25 53.275 25.6 53.775 26.2 53.775H54.9C55.6 53.775 56.1 53.175 56.1 52.575V43.275H75.2C75.9 43.275 76.4 42.675 76.4 42.075V19.275H79.9C80.4 19.275 80.9 18.975 81.1 18.475C81.3 17.975 81.2 17.475 80.8 17.075ZM40.8 5.575L48.6 13.775L57 22.575H54.8H26.1H23.6L40.8 5.575ZM7.20001 40.775V17.975C7.20001 17.275 6.59999 16.775 5.99999 16.775H4.4L18.9 2.975L29.8 12.975L19.7 22.975C19.3 23.375 19.2 23.875 19.4 24.375C19.6 24.875 20 25.175 20.6 25.175H25V40.775H7.20001ZM53.6 51.275H27.4V25.075H53.6V51.275ZM75.2 16.775C74.5 16.775 74 17.375 74 17.975V40.775H56.1V25.075H60C60.5 25.075 61 24.775 61.1 24.275C61.3 23.775 61.2 23.275 60.9 22.875L51.4 12.875L62.3 2.875L76.8 16.675H75.2V16.775Z" fill="url(#paint1_linear)"/>
<defs>
<linearGradient id="paint0_linear" x1="34.5078" y1="38.1839" x2="46.5263" y2="38.1839" gradientUnits="userSpaceOnUse">
<stop stop-color="#CBC9C9"/>
<stop offset="1" stop-color="#949494"/>
</linearGradient>
<linearGradient id="paint1_linear" x1="-0.0666" y1="26.8877" x2="81.2041" y2="26.8877" gradientUnits="userSpaceOnUse">
<stop stop-color="#CBC9C9"/>
<stop offset="1" stop-color="#949494"/>
</linearGradient>
</defs>
</svg>
