<svg width="61" height="64" viewBox="0 0 61 64" fill="none" xmlns="http://www.w3.org/2000/svg">
<path d="M40.3937 39.9V34.9C42.3937 32.5 43.5938 29.5 43.5938 26.2V24.1H43.9937C46.2937 24.1 48.1937 22.2 48.1937 19.9C48.1937 18 46.8937 16.4 45.0938 15.9C45.0938 15.7 45.1937 15.5 45.1937 15.3V15.1C45.1937 6.8 38.3937 0 30.0938 0C21.7938 0 14.9938 6.8 14.9938 15.1V15.3C14.9938 15.5 14.9938 15.7 15.0938 15.9C13.4938 16.5 12.2937 18 12.2937 19.8C12.2937 22.1 14.1937 24 16.4937 24H16.5938V26.1C16.5938 29.4 17.7937 32.5 19.7937 34.9V39.8C16.8937 40.1 9.49375 41.5 4.59375 47.1C1.09375 51.1 -0.40625 56.4 0.09375 62.8C0.19375 63.4 0.69375 63.9 1.29375 63.9H59.6937C60.3937 63.9 60.8937 63.4 60.8937 62.7C60.9937 62.6 61.1937 43.2 40.3937 39.9ZM29.9937 39.8C32.8937 39.8 35.6937 38.8 37.8937 37.2V43.3C36.6937 45.3 33.2938 46.9 29.9937 46.9C26.6938 46.9 23.3937 45.4 22.0938 43.4V37.2C24.3937 38.8 27.0938 39.8 29.9937 39.8ZM30.0938 49.4C31.7938 49.4 33.3937 49.1 34.8937 48.5L30.1937 56.2L25.3937 48.7C26.8937 49.2 28.4937 49.4 30.0938 49.4ZM17.3937 15.1C17.3937 9.9 20.5938 5.4 25.0938 3.5V9.39999C25.0938 10.1 25.6937 10.6 26.2937 10.6C26.8937 10.6 27.4937 9.99999 27.4937 9.39999V2.7C28.2937 2.5 29.0938 2.5 29.8937 2.5C30.5938 2.5 31.2937 2.6 31.9937 2.7V9.39999C31.9937 10.1 32.5938 10.6 33.1937 10.6C33.7937 10.6 34.3937 9.99999 34.3937 9.39999V3.3C39.0938 5.1 42.4937 9.7 42.4937 15.1V15.3C42.4937 15.5 42.3937 15.6 42.1937 15.6H17.6937C17.4937 15.6 17.3937 15.5 17.3937 15.3V15.1ZM14.6937 19.9C14.6937 19 15.4937 18.2 16.3937 18.2H43.9937C44.8937 18.2 45.6937 19 45.6937 19.9C45.6937 20.8 44.8937 21.6 43.9937 21.6H42.3937H17.6937H16.2937C15.3937 21.6 14.6937 20.8 14.6937 19.9ZM18.9937 24.1H41.1937V26.2C41.1937 32.3 36.1937 37.3 30.0938 37.3C23.9937 37.3 18.9937 32.3 18.9937 26.2V24.1ZM2.39375 61.5C2.19375 56.3 3.49375 52 6.29375 48.8C10.4937 44.1 16.8937 42.7 19.5938 42.3V43.7C19.5938 43.7 19.5938 43.7 19.5938 43.8V43.9C19.5938 44 19.6937 44.1 19.6937 44.2C19.6937 44.2 19.6937 44.2 19.6937 44.3C19.6937 44.3 19.6937 44.3 19.6937 44.4L19.7937 44.5C19.8937 44.6 19.9937 44.8 20.0938 44.9L28.9937 59.2C29.1938 59.6 29.5938 59.8 30.0938 59.8C30.4937 59.8 30.8937 59.6 31.1937 59.2L40.1937 44.6C40.2937 44.4 40.3937 44.2 40.3937 43.9V42.4C55.9938 45.1 58.0938 57.5 58.3937 61.5H2.39375Z" fill="url(#paint0_linear)"/>
<defs>
<linearGradient id="paint0_linear" x1="-0.10375" y1="31.9869" x2="60.9456" y2="31.9869" gradientUnits="userSpaceOnUse">
<stop stop-color="#CBC9C9"/>
<stop offset="1" stop-color="#949494"/>
</linearGradient>
</defs>
</svg>
