<svg width="67" height="66" viewBox="0 0 67 66" fill="none" xmlns="http://www.w3.org/2000/svg">
<path d="M30.8 39.7L10.7 59.8C8.8 61.7 5.79999 61.7 3.89999 59.8C2.99999 58.9 2.5 57.7 2.5 56.4C2.5 55.1 2.99999 53.9 3.89999 53L20.6 36.3C21.1 35.8 21.1 35 20.6 34.5C20.1 34 19.3 34 18.8 34.5L2.1 51.2C0.699998 52.6 0 54.4 0 56.4C0 58.4 0.799999 60.2 2.1 61.6C3.5 63 5.4 63.7 7.3 63.7C9.2 63.7 11.1 63 12.5 61.6L32.6 41.5C33.1 41 33.1 40.2 32.6 39.7C32.1 39.2 31.3 39.2 30.8 39.7Z" fill="url(#paint0_linear)"/>
<path d="M35.7001 21C36.4001 21 36.9001 20.4 36.9001 19.8V8.8L41.4001 4.3V11.5C41.4001 11.8 41.5001 12.2 41.8001 12.4L48.5001 18.6C49.0001 19 49.7001 19 50.2001 18.6L56.8001 13C57.1001 12.8 57.2001 12.4 57.2001 12V4.19999L62.6001 9.6V17.9L54.4001 26.1H44.5001C44.2001 26.1 43.9001 26.2 43.6001 26.5L38.7001 31.4C38.2001 31.9 38.2001 32.7 38.7001 33.2C38.9001 33.4 39.3001 33.6 39.6001 33.6C39.9001 33.6 40.2001 33.5 40.5001 33.2L45.0001 28.7H54.9001C55.2001 28.7 55.5001 28.6 55.8001 28.3L64.7001 19.4C64.9001 19.2 65.1001 18.8 65.1001 18.5V9.19999C65.1001 8.89999 65.0001 8.6 64.7001 8.3L56.8001 0.399991C56.4001 -9.05991e-06 55.9001 -0.0999968 55.4001 0.100003C54.9001 0.300003 54.6001 0.7 54.6001 1.3V11.5L49.2001 16L43.7001 11V1.3C43.7001 0.8 43.4001 0.300003 42.9001 0.100003C42.4001 -0.0999968 41.9001 -9.05991e-06 41.5001 0.399991L34.5001 7.39999C34.3001 7.59999 34.1001 8 34.1001 8.3V19.9C34.4001 20.4 35.0001 21 35.7001 21Z" fill="url(#paint1_linear)"/>
<path d="M66.1001 56.3999L55.9001 46.1999C55.6001 45.8999 55.3001 45.7999 54.9001 45.7999L50.4001 46.1999L34.0001 29.8L36.0001 27.8C36.5001 27.3 36.5001 26.4999 36.0001 25.9999L12.8001 2.79995C10.0001 -4.88758e-05 5.5001 -4.88758e-05 2.7001 2.79995C-0.0999024 5.59995 -0.0999024 10.0999 2.7001 12.8999L25.9001 36.1C26.1001 36.3 26.5001 36.4999 26.8001 36.4999C27.1001 36.4999 27.4001 36.4 27.7001 36.1L29.8001 33.9999L46.7001 50.8999V54.6C46.7001 54.9 46.8001 55.1999 47.1001 55.4999L57.1001 65.4999C57.3001 65.6999 57.7001 65.8999 58.0001 65.8999C58.3001 65.8999 58.6001 65.7999 58.9001 65.4999L66.3001 58.1C66.5001 57.9 66.7001 57.4999 66.7001 57.1999C66.7001 56.8999 66.4001 56.6999 66.1001 56.3999ZM26.8001 33.6L4.5001 11.1999C2.7001 9.39995 2.7001 6.39995 4.5001 4.59995C5.4001 3.69995 6.6001 3.19994 7.8001 3.19994C9.0001 3.19994 10.2001 3.69995 11.1001 4.59995L33.4001 26.8999L26.8001 33.6ZM57.9001 62.8999L49.1001 54.1V50.3999C49.1001 50.0999 49.0001 49.7999 48.7001 49.4999L31.5001 32.3L32.2001 31.6L49.0001 48.3999C49.3001 48.6999 49.6001 48.7999 50.0001 48.7999L54.5001 48.3999L63.4001 57.2999L57.9001 62.8999Z" fill="url(#paint2_linear)"/>
<defs>
<linearGradient id="paint0_linear" x1="-0.0368" y1="48.9338" x2="32.9837" y2="48.9338" gradientUnits="userSpaceOnUse">
<stop stop-color="#CBC9C9"/>
<stop offset="1" stop-color="#949494"/>
</linearGradient>
<linearGradient id="paint1_linear" x1="34.4027" y1="16.6875" x2="65.1596" y2="16.6875" gradientUnits="userSpaceOnUse">
<stop stop-color="#CBC9C9"/>
<stop offset="1" stop-color="#949494"/>
</linearGradient>
<linearGradient id="paint2_linear" x1="0.626998" y1="33.39" x2="66.4926" y2="33.39" gradientUnits="userSpaceOnUse">
<stop stop-color="#CBC9C9"/>
<stop offset="1" stop-color="#949494"/>
</linearGradient>
</defs>
</svg>
