<svg width="35" height="35" viewBox="0 0 35 35" fill="none" xmlns="http://www.w3.org/2000/svg">
<path d="M34.8951 10.285C34.8099 8.42215 34.514 7.15002 34.0814 6.03703C33.6422 4.86931 32.9532 3.8116 32.0629 2.93734C31.1889 2.04706 30.131 1.35785 28.9632 0.918319C27.85 0.485996 26.5781 0.190393 24.7153 0.105744C22.849 0.0202943 22.2528 0 17.5001 0C12.7475 0 12.1512 0.0202943 10.285 0.10521C8.42215 0.190393 7.15029 0.486263 6.03703 0.918853C4.86931 1.35812 3.8116 2.04706 2.93734 2.93734C2.04706 3.81133 1.35785 4.86904 0.918319 6.03677C0.485996 7.15002 0.190393 8.42215 0.105744 10.2847C0.0202943 12.1512 0 12.7473 0 17.4999C0 22.2527 0.0202943 22.849 0.105744 24.7153C0.19066 26.5778 0.48653 27.85 0.91912 28.9632C1.35839 30.1307 2.04733 31.1887 2.93761 32.0627C3.8116 32.9529 4.86958 33.6419 6.0373 34.0811C7.15029 34.514 8.42242 34.8096 10.2852 34.8948C12.1518 34.98 12.7478 35 17.5004 35C22.253 35 22.8493 34.98 24.7156 34.8948C26.5784 34.8096 27.8503 34.514 28.9635 34.0811C31.3142 33.1722 33.1724 31.3139 34.0814 28.9632C34.5143 27.85 34.8099 26.5778 34.8951 24.7153C34.98 22.8488 35.0003 22.2527 35.0003 17.5001C35.0003 12.7473 34.98 12.1512 34.8951 10.285ZM31.7449 24.5719C31.6672 26.2782 31.382 27.2048 31.1425 27.8214C30.5537 29.3478 29.3475 30.5539 27.8211 31.1427C27.2046 31.3823 26.278 31.6675 24.5716 31.7452C22.7267 31.8295 22.1732 31.8472 17.5001 31.8472C12.8268 31.8472 12.2735 31.8295 10.4284 31.7452C8.7223 31.6675 7.7957 31.3823 7.17886 31.1427C6.41889 30.8621 5.73128 30.4148 5.16678 29.8335C4.58545 29.269 4.13818 28.5816 3.85753 27.8214C3.618 27.2048 3.33281 26.2782 3.25511 24.5719C3.17099 22.7267 3.1531 22.1732 3.1531 17.5004C3.1531 12.8274 3.17099 12.2741 3.25511 10.4286C3.33308 8.7223 3.618 7.7957 3.85753 7.17912C4.13818 6.41889 4.58572 5.73128 5.16678 5.16678C5.73128 4.58545 6.41889 4.13818 7.17913 3.85779C7.7957 3.618 8.7223 3.33308 10.4286 3.25511C12.2738 3.17099 12.8274 3.1531 17.5001 3.1531H17.4999C22.1726 3.1531 22.7262 3.17099 24.5716 3.25537C26.278 3.33308 27.2043 3.61827 27.8211 3.85779C28.5811 4.13844 29.2687 4.58572 29.8332 5.16678C30.4145 5.73128 30.8618 6.41889 31.1422 7.17912C31.382 7.7957 31.6672 8.7223 31.7449 10.4286C31.829 12.2738 31.8469 12.8274 31.8469 17.5001C31.8469 22.1732 31.8293 22.7265 31.7449 24.5719Z" fill="url(#paint0_linear)"/>
<path d="M17.5005 8.51367C12.5375 8.51367 8.51416 12.5373 8.51416 17.5003C8.51416 22.4634 12.5375 26.4867 17.5005 26.4867C22.4639 26.4867 26.4872 22.4634 26.4872 17.5003C26.4872 12.5373 22.4639 8.51367 17.5005 8.51367ZM17.5005 23.3336C14.2791 23.3334 11.6673 20.7218 11.6675 17.5001C11.6675 14.2786 14.2791 11.6668 17.5008 11.6668C20.7225 11.667 23.3341 14.2786 23.3341 17.5001C23.3341 20.7218 20.7223 23.3336 17.5005 23.3336Z" fill="url(#paint1_linear)"/>
<path d="M28.9418 8.15879C28.9418 9.31851 28.0016 10.2587 26.8419 10.2587C25.6819 10.2587 24.7417 9.31851 24.7417 8.15879C24.7417 6.99881 25.6819 6.05859 26.8419 6.05859C28.0016 6.05859 28.9418 6.99881 28.9418 8.15879Z" fill="url(#paint2_linear)"/>
<defs>
<linearGradient id="paint0_linear" x1="2.93716" y1="32.0628" x2="32.0631" y2="2.93688" gradientUnits="userSpaceOnUse">
<stop stop-color="#FFD600"/>
<stop offset="0.5" stop-color="#FF0100"/>
<stop offset="1" stop-color="#D800B9"/>
</linearGradient>
<linearGradient id="paint1_linear" x1="11.1463" y1="23.8546" x2="23.8551" y2="11.1458" gradientUnits="userSpaceOnUse">
<stop stop-color="#FF6400"/>
<stop offset="0.5" stop-color="#FF0100"/>
<stop offset="1" stop-color="#FD0056"/>
</linearGradient>
<linearGradient id="paint2_linear" x1="25.3569" y1="9.64357" x2="28.3267" y2="6.67377" gradientUnits="userSpaceOnUse">
<stop stop-color="#F30072"/>
<stop offset="1" stop-color="#E50097"/>
</linearGradient>
</defs>
</svg>
