<svg width="21" height="23" viewBox="0 0 21 23" fill="none" xmlns="http://www.w3.org/2000/svg">
<path d="M15.0927 22.3126C14.4148 22.3126 13.7427 22.1853 13.0854 21.9316C10.1899 20.814 7.50225 18.9937 5.31291 16.6676C3.12358 14.3415 1.41042 11.4858 0.35861 8.40933C0.0206122 7.42064 -0.0791342 6.40006 0.0622415 5.37581C0.194676 4.41641 0.544445 3.48502 1.07377 2.68233C1.60544 1.8761 2.31425 1.20553 3.12354 0.743127C3.98656 0.250048 4.92853 0 5.92337 0C6.23278 0 6.50019 0.229697 6.56503 0.551125L7.59506 5.65837C7.6417 5.88963 7.5748 6.13027 7.41743 6.29752L5.65739 8.16752C7.31772 11.6749 10.0119 14.5374 13.3129 16.3015L15.0729 14.4315C15.2303 14.2643 15.4568 14.1933 15.6745 14.2427L20.4813 15.3372C20.7839 15.406 21 15.6902 21 16.0189C21 17.0759 20.7647 18.0768 20.3005 18.9938C19.8653 19.8537 19.2342 20.6068 18.4754 21.1717C17.72 21.7341 16.8434 22.1057 15.9404 22.2464C15.6574 22.2906 15.3745 22.3126 15.0927 22.3126V22.3126ZM5.39904 1.42498C4.08679 1.5789 2.92208 2.3097 2.14863 3.48258C1.27888 4.80146 1.07607 6.42363 1.59219 7.93324C3.61435 13.8478 7.96681 18.4723 13.5335 20.6209C14.9543 21.1693 16.4811 20.9538 17.7224 20.0297C18.8263 19.2079 19.5141 17.9704 19.6589 16.5761L15.7486 15.6858L13.9105 17.6388C13.7149 17.8466 13.4177 17.9018 13.1674 17.7768C9.26331 15.8281 6.10309 12.4703 4.26894 8.32217C4.15135 8.05622 4.20328 7.74046 4.39887 7.53268L6.23696 5.57971L5.39904 1.42498Z" fill="#2F80ED"/>
<path d="M20.3434 11.8531C19.981 11.8531 19.6871 11.5409 19.6871 11.1558C19.6871 5.77341 15.5658 1.39448 10.5 1.39448C10.1376 1.39448 9.84375 1.08229 9.84375 0.69724C9.84375 0.312189 10.1376 0 10.5 0C13.3046 0 15.9412 1.16038 17.9244 3.26744C19.9075 5.3745 20.9996 8.17597 20.9996 11.1558C20.9996 11.5409 20.7058 11.8531 20.3434 11.8531Z" fill="#2F80ED"/>
<path d="M17.7185 11.8532C17.3561 11.8532 17.0622 11.541 17.0622 11.1559C17.0622 7.31136 14.1184 4.18354 10.5 4.18354C10.1376 4.18354 9.84375 3.87135 9.84375 3.4863C9.84375 3.10125 10.1376 2.78906 10.5 2.78906C14.8421 2.78906 18.3747 6.54244 18.3747 11.1559C18.3747 11.541 18.0809 11.8532 17.7185 11.8532Z" fill="#2F80ED"/>
<path d="M15.0936 11.8533C14.7312 11.8533 14.4373 11.5411 14.4373 11.1561C14.4373 8.84927 12.6711 6.97261 10.5 6.97261C10.1376 6.97261 9.84375 6.66042 9.84375 6.27537C9.84375 5.89031 10.1376 5.57812 10.5 5.57812C13.3948 5.57812 15.7498 8.08035 15.7498 11.1561C15.7498 11.5411 15.456 11.8533 15.0936 11.8533Z" fill="#2F80ED"/>
</svg>
