<svg width="18" height="24" viewBox="0 0 18 24" fill="none" xmlns="http://www.w3.org/2000/svg">
<circle cx="15" cy="12" r="3" fill="#008FF1"/>
<path d="M9.91402 19.639C10.5431 20.1781 11.49 20.1051 12.0291 19.4761C12.5681 18.847 12.4952 17.9001 11.8662 17.361L9.91402 19.639ZM11.9106 7.0993C12.5178 6.53566 12.553 5.58656 11.9894 4.97944C11.4257 4.37231 10.4766 4.33706 9.86952 4.9007L11.9106 7.0993ZM10.8901 18.5C11.8662 17.361 11.8667 17.3615 11.8672 17.3619C11.8674 17.362 11.8679 17.3625 11.8681 17.3627C11.8687 17.3632 11.8691 17.3636 11.8695 17.3639C11.8702 17.3645 11.8705 17.3647 11.8704 17.3647C11.8702 17.3645 11.8684 17.3629 11.8651 17.36C11.8585 17.3541 11.8459 17.3429 11.8279 17.3263C11.7918 17.2932 11.7344 17.2392 11.6605 17.1658C11.5124 17.0185 11.3006 16.7953 11.0633 16.5073C10.5829 15.924 10.0292 15.1124 9.66743 14.1566C9.30977 13.2115 9.14887 12.1534 9.40061 11.0208C9.65136 9.89262 10.3412 8.55632 11.9106 7.0993L9.86952 4.9007C7.93822 6.69368 6.87771 8.54488 6.47207 10.3699C6.06742 12.1904 6.34411 13.851 6.86164 15.2184C7.37508 16.5751 8.13415 17.6697 8.74771 18.4146C9.0574 18.7906 9.33793 19.087 9.54529 19.2932C9.6492 19.3965 9.73537 19.4778 9.79846 19.5357C9.83003 19.5647 9.85587 19.5879 9.87534 19.6052C9.88507 19.6138 9.89322 19.621 9.89969 19.6266C9.90293 19.6294 9.90574 19.6319 9.90814 19.6339C9.90933 19.635 9.91042 19.6359 9.9114 19.6367C9.91189 19.6372 9.91255 19.6377 9.91279 19.6379C9.91342 19.6385 9.91402 19.639 10.8901 18.5Z" fill="#008FF1"/>
<path d="M5.97175 23.1869C6.62727 23.6935 7.56931 23.5727 8.07585 22.9172C8.58239 22.2616 8.46161 21.3196 7.80609 20.8131L5.97175 23.1869ZM7.97288 3.03683C8.54551 2.43818 8.52441 1.48867 7.92575 0.916037C7.3271 0.34341 6.37758 0.36451 5.80496 0.963166L7.97288 3.03683ZM6.88892 22C7.80609 20.8131 7.80671 20.8136 7.80729 20.814C7.80742 20.8141 7.80796 20.8145 7.80824 20.8147C7.80879 20.8152 7.80918 20.8155 7.8094 20.8156C7.80986 20.816 7.80967 20.8159 7.80886 20.8152C7.80722 20.8139 7.80308 20.8106 7.79655 20.8054C7.78348 20.7949 7.76089 20.7766 7.72976 20.7506C7.66746 20.6985 7.57124 20.616 7.44888 20.5043C7.20367 20.2806 6.85641 19.9425 6.46811 19.5012C5.68616 18.6127 4.76853 17.3405 4.1633 15.7724C3.56353 14.2184 3.26972 12.3756 3.7152 10.2899C4.16164 8.19974 5.37482 5.75299 7.97288 3.03683L5.80496 0.963166C2.90302 3.99701 1.36619 6.92526 0.781381 9.66324C0.195617 12.4057 0.5893 14.8441 1.36453 16.8526C2.13431 18.847 3.27917 20.4186 4.21597 21.4831C4.68706 22.0185 5.11323 22.4343 5.42662 22.7203C5.58355 22.8635 5.71292 22.9748 5.80637 23.0529C5.85313 23.0919 5.89096 23.1227 5.91885 23.1451C5.9328 23.1563 5.94426 23.1654 5.95312 23.1724C5.95755 23.1759 5.96133 23.1788 5.96444 23.1812C5.96599 23.1825 5.96738 23.1835 5.9686 23.1845C5.96921 23.185 5.97 23.1856 5.9703 23.1858C5.97105 23.1864 5.97175 23.1869 6.88892 22Z" fill="#008FF1"/>
</svg>
