<svg width="48" height="28" viewBox="0 0 48 28" fill="none" xmlns="http://www.w3.org/2000/svg">
<path d="M39.83 16.056C39.054 15.076 39.276 14.64 39.83 13.764C39.84 13.754 46.246 4.902 46.906 1.9L46.91 1.898C47.238 0.804 46.91 0 45.324 0H40.076C38.74 0 38.124 0.69 37.794 1.462C37.794 1.462 35.122 7.858 31.342 12.004C30.122 13.202 29.558 13.586 28.892 13.586C28.564 13.586 28.054 13.202 28.054 12.108V1.898C28.054 0.586 27.68 0 26.574 0H18.322C17.484 0 16.986 0.612 16.986 1.182C16.986 2.426 18.876 2.712 19.072 6.212V13.806C19.072 15.47 18.77 15.776 18.1 15.776C16.316 15.776 11.986 9.354 9.42 2.004C8.902 0.578 8.396 0.00199986 7.05 0.00199986H1.8C0.302 0.00199986 0 0.692 0 1.464C0 2.828 1.784 9.61 8.296 18.57C12.636 24.686 18.748 28 24.308 28C27.65 28 28.058 27.264 28.058 25.998C28.058 20.154 27.756 19.602 29.43 19.602C30.206 19.602 31.542 19.986 34.662 22.936C38.228 26.434 38.814 28 40.81 28H46.058C47.554 28 48.312 27.264 47.876 25.812C46.878 22.758 40.134 16.476 39.83 16.056Z" fill="#2787F5"/>
</svg>
