<svg width="156" height="63" viewBox="0 0 156 63" fill="none" xmlns="http://www.w3.org/2000/svg">
<path fill-rule="evenodd" clip-rule="evenodd" d="M53.0866 34.9672C47.9666 34.9672 42.8466 34.9672 37.7266 34.9672V59.9823H41.7687V50.568H53.0866C54.1645 50.568 54.9729 49.7611 54.9729 48.6852V37.388C54.9729 35.7742 54.1645 34.9672 53.0866 34.9672ZM41.7687 39.2709H50.9308V46.5333H41.7687V39.2709ZM75.1835 34.9672H60.9014C59.8235 34.9672 59.015 35.7742 59.015 36.8501V57.8304C59.015 58.9063 59.8235 59.7133 60.9014 59.7133H75.1835C76.2614 59.7133 77.0698 58.9063 77.0698 57.8304V36.8501C77.0698 35.7742 76.2614 34.9672 75.1835 34.9672ZM63.5961 39.2709H72.7582V55.9476H63.5961V39.2709ZM96.7414 34.9672H83.5372C82.4593 34.9672 81.6509 35.7742 81.6509 36.8501V57.8304C81.6509 58.9063 82.4593 59.7133 83.5372 59.7133H96.7414C97.8193 59.7133 98.6278 58.9063 98.6278 57.8304V51.9129H93.7772V55.6786H85.693V39.0019H93.7772V42.2297H98.6278V36.5811C98.8972 35.7742 97.8193 34.9672 96.7414 34.9672Z" fill="url(#paint0_linear)"/>
<path fill-rule="evenodd" clip-rule="evenodd" d="M102.4 59.9823H106.442V39.2709H117.221V34.9672H106.442H102.4V39.0019V59.9823ZM154.139 34.9672H140.935C139.857 34.9672 139.049 35.7742 139.049 36.8501V42.2297H143.36V39.0019H151.444V42.2297V45.1884H145.516V49.4921H151.175V52.1819V55.6786H143.091V52.1819H138.779V58.0994C138.779 59.1753 139.588 59.9823 140.665 59.9823H153.87C154.948 59.9823 155.756 59.1753 155.756 58.0994V50.568V49.4921C155.756 48.4162 154.948 47.6092 154.139 47.6092C154.948 47.3403 155.756 46.5333 155.756 45.7264V44.9195V37.1191C156.026 35.7742 155.217 34.9672 154.139 34.9672ZM117.76 59.9823H121.802L123.15 55.1406H130.964L132.312 59.9823H136.354L130.156 34.9672H128.27H125.844H123.958L117.76 59.9823ZM124.228 50.837L127.192 39.5399L130.156 50.837H124.228Z" fill="url(#paint1_linear)"/>
<path fill-rule="evenodd" clip-rule="evenodd" d="M0 50.299V34.9672V32.5464H2.42527H22.6358H24.7916V34.9672V59.9823V62.4031H22.6358H7.27581H4.85054V59.9823V52.9888H7.00633V59.9823H22.3664V34.9672H2.42527V50.299H0ZM12.9348 14.5249C12.9348 12.642 11.8569 11.2971 11.5874 9.95221C11.3179 9.68324 11.0484 8.06936 11.3179 8.06936C12.3958 8.60732 12.1263 5.37957 12.3958 4.30366C12.3958 4.84162 13.4737 6.45549 13.7432 7.26243C14.2821 8.33834 14.0127 9.14528 14.0127 9.95221C14.0127 11.5661 15.36 9.95221 14.8211 11.5661C14.5516 12.911 14.8211 12.642 14.2821 14.2559C15.36 13.7179 17.2464 8.33834 16.9769 6.45549C16.1685 6.99345 15.6295 6.18651 15.36 5.64855C15.0906 4.84162 14.8211 4.30366 15.0906 2.68979C14.2821 2.95877 14.5516 2.95877 13.7432 3.22775C13.4737 3.22775 12.9348 0.537957 12.9348 0C11.0484 0.806936 11.5874 2.68979 11.3179 2.95877C11.0484 3.49672 11.0484 3.49672 10.779 3.22775C10.779 3.49672 10.779 5.91753 10.5095 6.18651C9.97055 5.91753 8.89265 5.1106 8.89265 5.1106C8.89265 6.18651 9.16213 7.5314 9.4316 8.60732C9.70108 9.14528 9.97055 9.68323 10.24 10.2212C10.24 10.4902 11.8569 13.18 12.9348 14.5249ZM15.36 18.5595H14.0127V16.4077H15.36V18.5595ZM12.6653 18.5595H11.3179V16.4077H12.6653V18.5595ZM16.7074 22.5942H14.0127V20.4424H16.7074V22.5942ZM12.6653 22.5942H10.24V20.4424H12.6653V22.5942ZM19.1327 26.6289H14.0127V24.4771H19.1327V26.6289ZM12.6653 26.6289H8.08423V24.4771H12.9348V26.6289H12.6653ZM21.5579 30.9326H14.0127V28.7807H21.5579V30.9326ZM12.6653 30.9326H5.12001V28.7807H12.6653V30.9326ZM4.85054 50.299V38.7329V36.8501H7.00633H18.3243H20.2106V38.7329V55.6786V58.0994H18.3243H11.3179H8.62318V55.6786V52.7198H11.0484V55.6786H18.3243V38.7329H7.27581V50.299H4.85054ZM8.62318 50.299V43.0366V40.8848H11.0484H14.5516H16.7074V43.0366V52.7198H14.5516V43.0366H11.3179V50.299H8.62318ZM0 52.7198H2.69474V55.4096H0V52.7198Z" fill="url(#paint2_linear)"/>
<defs>
<linearGradient id="paint0_linear" x1="68.1909" y1="13.73" x2="68.2341" y2="74.8681" gradientUnits="userSpaceOnUse">
<stop offset="0.3552" stop-color="#E30613"/>
<stop offset="0.3862" stop-color="#DE0B15"/>
<stop offset="0.4895" stop-color="#CF1518"/>
<stop offset="0.5869" stop-color="#C5191A"/>
<stop offset="0.6717" stop-color="#C21A1A"/>
</linearGradient>
<linearGradient id="paint1_linear" x1="129.263" y1="26.5926" x2="129.104" y2="80.1099" gradientUnits="userSpaceOnUse">
<stop offset="0.2435" stop-color="#6CC6E8"/>
<stop offset="0.3295" stop-color="#2DACD9"/>
<stop offset="0.4229" stop-color="#0097CD"/>
<stop offset="0.5132" stop-color="#0089C3"/>
<stop offset="0.5979" stop-color="#0081BE"/>
<stop offset="0.6717" stop-color="#007EBC"/>
</linearGradient>
<linearGradient id="paint2_linear" x1="8.16291" y1="8.59737" x2="13.9305" y2="57.2151" gradientUnits="userSpaceOnUse">
<stop offset="0.0649005" stop-color="#6CC6E8"/>
<stop offset="0.3564" stop-color="#0BA6D6"/>
<stop offset="0.6309" stop-color="#008FC8"/>
<stop offset="0.8548" stop-color="#0082BF"/>
<stop offset="1" stop-color="#007EBC"/>
</linearGradient>
</defs>
</svg>
